<svg width="26" height="26" viewBox="0 0 26 26" fill="none" xmlns="http://www.w3.org/2000/svg" color="black">
<path d="M13 17.375C11.8397 17.375 10.7269 16.9141 9.90645 16.0936C9.08598 15.2731 8.62504 14.1603 8.62504 13C8.62504 11.8397 9.08598 10.7269 9.90645 9.90641C10.7269 9.08594 11.8397 8.625 13 8.625C14.1604 8.625 15.2732 9.08594 16.0936 9.90641C16.9141 10.7269 17.375 11.8397 17.375 13C17.375 14.1603 16.9141 15.2731 16.0936 16.0936C15.2732 16.9141 14.1604 17.375 13 17.375ZM22.2875 14.2125C22.3375 13.8125 22.375 13.4125 22.375 13C22.375 12.5875 22.3375 12.175 22.2875 11.75L24.925 9.7125C25.1625 9.525 25.225 9.1875 25.075 8.9125L22.575 4.5875C22.425 4.3125 22.0875 4.2 21.8125 4.3125L18.7 5.5625C18.05 5.075 17.375 4.65 16.5875 4.3375L16.125 1.025C16.0997 0.877774 16.023 0.744286 15.9086 0.648192C15.7942 0.552097 15.6494 0.4996 15.5 0.500002H10.5C10.1875 0.500002 9.92504 0.725002 9.87504 1.025L9.41254 4.3375C8.62504 4.65 7.95004 5.075 7.30004 5.5625L4.18754 4.3125C3.91254 4.2 3.57504 4.3125 3.42504 4.5875L0.925043 8.9125C0.762543 9.1875 0.837544 9.525 1.07504 9.7125L3.71254 11.75C3.66254 12.175 3.62504 12.5875 3.62504 13C3.62504 13.4125 3.66254 13.8125 3.71254 14.2125L1.07504 16.2875C0.837544 16.475 0.762543 16.8125 0.925043 17.0875L3.42504 21.4125C3.57504 21.6875 3.91254 21.7875 4.18754 21.6875L7.30004 20.425C7.95004 20.925 8.62504 21.35 9.41254 21.6625L9.87504 24.975C9.92504 25.275 10.1875 25.5 10.5 25.5H15.5C15.8125 25.5 16.075 25.275 16.125 24.975L16.5875 21.6625C17.375 21.3375 18.05 20.925 18.7 20.425L21.8125 21.6875C22.0875 21.7875 22.425 21.6875 22.575 21.4125L25.075 17.0875C25.225 16.8125 25.1625 16.475 24.925 16.2875L22.2875 14.2125Z" fill="white"/>
</svg>
